%
M48
M72
T01C0.01378
T02C0.02756
T03C0.04000
%
T01
X54100Y43000
X50500Y52900
X47800Y55300
X53200Y57700
X41500Y51400
X39100Y58000
X28300Y55900
X33400Y68800
X25600Y70600
X37300Y73900
X55000Y76900
X64000Y79000
X56200Y89500
X71800Y89500
X45700Y106300
X50800Y110500
X53200Y117700
X57100Y133000
X96700Y136300
X96400Y143200
X102400Y145600
X107200Y146800
X125000Y149724
X146500Y138500
X161000Y136500
X170500Y135000
X182500Y145000
X157600Y119500
X149200Y113500
X151600Y100900
X157600Y97600
X157600Y93700
X181000Y90400
X188800Y88400
X195400Y88900
X187600Y82600
X189000Y78500
X174400Y74500
X185800Y57700
X195400Y48100
X149200Y64600
X142600Y67000
X142600Y71500
X148000Y73300
X128200Y72400
X128200Y77500
X106900Y79900
X101200Y75100
X97900Y71800
X94900Y57400
X78400Y57400
X64900Y67000
X22600Y91300
X20800Y102700
X117500Y132000
X142600Y125800
X148900Y39700
X148900Y25600
X112000Y14800
X102100Y13000
T02
X99079Y43000
X108921Y43000
T03
X9000Y20000
X9000Y30000
X9000Y46000
X9000Y56000
X9000Y72000
X9000Y83000
X9000Y94000
X9000Y105000
X9000Y115000
X9000Y125000
X9000Y140000
X178500Y138500
X188500Y138500
X198500Y138500
X198500Y148500
X188500Y148500
X178500Y148500
M30
