%
M48
M72
T01C0.01378
T02C0.02756
T03C0.04000
%
T01
X36100Y50500
X33400Y52900
X33400Y56500
X35500Y61600
X31600Y61900
X29800Y65200
X22300Y65800
X21700Y72100
X34300Y84100
X50500Y85300
X56200Y76900
X49000Y74500
X51700Y69700
X65200Y64600
X49300Y54100
X47200Y51100
X84400Y85300
X94900Y77800
X102100Y66100
X126700Y80200
X128200Y73300
X138100Y82000
X142875Y67250
X146625Y67250
X150688Y61312
X133600Y63700
X172250Y73500
X184125Y64125
X172250Y91625
X155300Y95500
X155200Y99100
X150100Y103600
X136300Y113500
X132400Y109600
X130600Y115900
X123100Y112300
X123200Y100800
X105700Y99700
X136600Y127600
X156000Y125811
X157250Y120375
X166900Y133300
X126400Y143500
X118000Y137200
X112000Y131200
X100000Y139300
X96400Y143200
X96700Y148000
X103300Y146500
X60100Y113500
X54100Y111100
X51100Y106900
X56500Y105100
X51700Y97900
X36400Y115000
X31300Y125800
X25900Y127600
X38500Y127000
X53500Y136600
X97000Y31300
X94300Y28900
X94125Y24750
X110375Y28500
X148500Y27250
X184125Y29750
T02
X108921Y43000
X99079Y43000
T03
X9000Y20000
X9000Y30000
X9000Y46000
X9000Y56000
X9000Y72000
X9000Y83000
X9000Y94000
X9000Y105000
X9000Y115000
X9000Y125000
X9000Y140000
X178500Y138500
X188500Y138500
X198500Y138500
X198500Y148500
X188500Y148500
X178500Y148500
M30
