G75*
%MOIN*%
%OFA0B0*%
%FSLAX25Y25*%
%IPPOS*%
%LPD*%
%AMOC8*
5,1,8,0,0,1.08239X$1,22.5*
%
%ADD10R,0.05131X0.04737*%
%ADD11C,0.07300*%
%ADD12R,0.07300X0.07300*%
%ADD13R,0.10249X0.10249*%
%ADD14R,0.15761X0.11824*%
%ADD15R,0.03556X0.02769*%
%ADD16R,0.03162X0.03162*%
%ADD17R,0.02375X0.03950*%
%ADD18R,0.06706X0.02769*%
%ADD19R,0.02769X0.06706*%
%ADD20OC8,0.06800*%
%ADD21R,0.04737X0.06312*%
%ADD22R,0.06312X0.04737*%
%ADD23R,0.01981X0.02572*%
%ADD24R,0.09599X0.05599*%
%ADD25R,0.09461X0.14973*%
%ADD26R,0.04737X0.05131*%
%ADD27R,0.03937X0.02362*%
%ADD28R,0.10052X0.03359*%
%ADD29R,0.01981X0.03556*%
%ADD30R,0.08989X0.03950*%
%ADD31R,0.03162X0.05524*%
%ADD32C,0.09461*%
%ADD33R,0.06201X0.04134*%
%ADD34R,0.03950X0.03950*%
%ADD35R,0.08280X0.08280*%
%ADD36R,0.07099X0.09068*%
%ADD37R,0.06115X0.02375*%
%ADD38C,0.03778*%
D10*
X0060654Y0059000D03*
X0067346Y0059000D03*
X0067346Y0075000D03*
X0060654Y0075000D03*
X0060654Y0090000D03*
X0067346Y0090000D03*
X0083654Y0090000D03*
X0090346Y0090000D03*
X0139654Y0044000D03*
X0146346Y0044000D03*
X0155654Y0044000D03*
X0162346Y0044000D03*
X0162346Y0036000D03*
X0155654Y0036000D03*
X0155654Y0028000D03*
X0162346Y0028000D03*
X0162346Y0012000D03*
X0155654Y0012000D03*
X0188654Y0012000D03*
X0195346Y0012000D03*
X0195346Y0028000D03*
X0188654Y0028000D03*
X0188654Y0036000D03*
X0195346Y0036000D03*
X0195346Y0044000D03*
X0188654Y0044000D03*
X0179346Y0044000D03*
X0172654Y0044000D03*
X0177654Y0070500D03*
X0184346Y0070500D03*
X0105346Y0025000D03*
X0098654Y0025000D03*
X0098654Y0017000D03*
X0105346Y0017000D03*
X0105346Y0009000D03*
X0098654Y0009000D03*
D11*
X0099079Y0043000D03*
D12*
X0108921Y0043000D03*
D13*
X0142339Y0056000D03*
X0159661Y0056000D03*
X0175339Y0056000D03*
X0192661Y0056000D03*
D14*
X0028000Y0040567D03*
X0028000Y0011433D03*
D15*
X0044638Y0022000D03*
X0049756Y0022000D03*
D16*
X0059669Y0067000D03*
X0068331Y0067000D03*
X0029331Y0140000D03*
X0020669Y0140000D03*
D17*
X0040441Y0074150D03*
X0043000Y0074150D03*
X0045559Y0074150D03*
X0045559Y0067850D03*
X0043000Y0067850D03*
X0040441Y0067850D03*
D18*
X0117165Y0094252D03*
X0117165Y0097402D03*
X0117165Y0100551D03*
X0117165Y0103701D03*
X0117165Y0106850D03*
X0117165Y0110000D03*
X0117165Y0113150D03*
X0117165Y0116299D03*
X0117165Y0119449D03*
X0117165Y0122598D03*
X0117165Y0125748D03*
X0162835Y0125748D03*
X0162835Y0122598D03*
X0162835Y0119449D03*
X0162835Y0116299D03*
X0162835Y0113150D03*
X0162835Y0110000D03*
X0162835Y0106850D03*
X0162835Y0103701D03*
X0162835Y0100551D03*
X0162835Y0097402D03*
X0162835Y0094252D03*
D19*
X0155748Y0087165D03*
X0152598Y0087165D03*
X0149449Y0087165D03*
X0146299Y0087165D03*
X0143150Y0087165D03*
X0140000Y0087165D03*
X0136850Y0087165D03*
X0133701Y0087165D03*
X0130551Y0087165D03*
X0127402Y0087165D03*
X0124252Y0087165D03*
X0124252Y0132835D03*
X0127402Y0132835D03*
X0130551Y0132835D03*
X0133701Y0132835D03*
X0136850Y0132835D03*
X0140000Y0132835D03*
X0143150Y0132835D03*
X0146299Y0132835D03*
X0149449Y0132835D03*
X0152598Y0132835D03*
X0155748Y0132835D03*
D20*
X0009000Y0020000D03*
X0009000Y0030000D03*
X0009000Y0046000D03*
X0009000Y0056000D03*
X0009000Y0072000D03*
X0009000Y0083000D03*
X0009000Y0094000D03*
X0009000Y0105000D03*
X0009000Y0115000D03*
X0009000Y0125000D03*
X0009000Y0140000D03*
X0178500Y0138500D03*
X0188500Y0138500D03*
X0198500Y0138500D03*
X0198500Y0148500D03*
X0188500Y0148500D03*
X0178500Y0148500D03*
D21*
X0069740Y0139669D03*
X0062260Y0139669D03*
X0066000Y0148331D03*
X0025000Y0106331D03*
X0021260Y0097669D03*
X0028740Y0097669D03*
X0041260Y0090331D03*
X0048740Y0090331D03*
X0045000Y0081669D03*
D22*
X0029331Y0082260D03*
X0029331Y0089740D03*
X0020669Y0086000D03*
X0040669Y0098260D03*
X0049331Y0102000D03*
X0040669Y0105740D03*
X0029331Y0114260D03*
X0020669Y0118000D03*
X0029331Y0121740D03*
D23*
X0027969Y0074657D03*
X0026000Y0074657D03*
X0024031Y0074657D03*
X0024031Y0069343D03*
X0026000Y0069343D03*
X0027969Y0069343D03*
X0027969Y0061657D03*
X0026000Y0061657D03*
X0024031Y0061657D03*
X0024031Y0056343D03*
X0026000Y0056343D03*
X0027969Y0056343D03*
X0041031Y0055343D03*
X0043000Y0055343D03*
X0044969Y0055343D03*
X0044969Y0060657D03*
X0043000Y0060657D03*
X0041031Y0060657D03*
D24*
X0086201Y0030098D03*
X0086201Y0021000D03*
X0086201Y0011902D03*
D25*
X0061799Y0021000D03*
D26*
X0050346Y0014000D03*
X0043654Y0014000D03*
X0043654Y0031000D03*
X0050346Y0031000D03*
X0060654Y0043000D03*
X0067346Y0043000D03*
X0067346Y0051000D03*
X0060654Y0051000D03*
X0050346Y0047000D03*
X0043654Y0047000D03*
X0079654Y0059000D03*
X0086346Y0059000D03*
X0086346Y0067000D03*
X0079654Y0067000D03*
X0079654Y0075000D03*
X0086346Y0075000D03*
X0121654Y0044000D03*
X0128346Y0044000D03*
X0155654Y0020000D03*
X0162346Y0020000D03*
X0172654Y0012000D03*
X0179346Y0012000D03*
X0188654Y0020000D03*
X0195346Y0020000D03*
X0146346Y0012000D03*
X0139654Y0012000D03*
X0177654Y0078500D03*
X0184346Y0078500D03*
X0184346Y0086500D03*
X0177654Y0086500D03*
X0177654Y0094500D03*
X0184346Y0094500D03*
X0184346Y0102500D03*
X0177654Y0102500D03*
X0177654Y0110500D03*
X0184346Y0110500D03*
X0184346Y0118500D03*
X0177654Y0118500D03*
X0169846Y0141500D03*
X0163154Y0141500D03*
X0152846Y0141500D03*
X0146154Y0141500D03*
X0092346Y0140000D03*
X0085654Y0140000D03*
X0085654Y0148000D03*
X0092346Y0148000D03*
X0049346Y0145000D03*
X0042654Y0145000D03*
X0042654Y0137000D03*
X0049346Y0137000D03*
X0049346Y0129000D03*
X0042654Y0129000D03*
X0042654Y0121000D03*
X0049346Y0121000D03*
X0028346Y0132000D03*
X0021654Y0132000D03*
X0021654Y0148000D03*
X0028346Y0148000D03*
D27*
X0112850Y0146575D03*
X0112850Y0149724D03*
X0119150Y0149724D03*
X0119150Y0146575D03*
X0119150Y0143425D03*
X0119150Y0140276D03*
X0112850Y0140276D03*
X0112850Y0143425D03*
X0130350Y0143425D03*
X0130350Y0140276D03*
X0136650Y0140276D03*
X0136650Y0143425D03*
X0136650Y0146575D03*
X0136650Y0149724D03*
X0130350Y0149724D03*
X0130350Y0146575D03*
X0132350Y0076224D03*
X0132350Y0073075D03*
X0132350Y0069925D03*
X0132350Y0066776D03*
X0138650Y0066776D03*
X0138650Y0069925D03*
X0138650Y0073075D03*
X0138650Y0076224D03*
D28*
X0098803Y0100000D03*
X0098803Y0110000D03*
X0098803Y0120000D03*
X0098803Y0130000D03*
X0062976Y0130000D03*
X0062976Y0120000D03*
X0062976Y0110000D03*
X0062976Y0100000D03*
D29*
X0138063Y0031988D03*
X0140031Y0031988D03*
X0142000Y0031988D03*
X0143969Y0031988D03*
X0145937Y0031988D03*
X0145937Y0024193D03*
X0143969Y0024193D03*
X0142000Y0024193D03*
X0140031Y0024193D03*
X0138063Y0024193D03*
X0171063Y0024193D03*
X0173031Y0024193D03*
X0175000Y0024193D03*
X0176969Y0024193D03*
X0178937Y0024193D03*
X0178937Y0031988D03*
X0176969Y0031988D03*
X0175000Y0031988D03*
X0173031Y0031988D03*
X0171063Y0031988D03*
D30*
X0175000Y0028110D03*
X0142000Y0028110D03*
D31*
X0114500Y0061976D03*
X0109500Y0061976D03*
X0104500Y0061976D03*
X0099500Y0061976D03*
X0099500Y0084024D03*
X0104500Y0084024D03*
X0109500Y0084024D03*
X0114500Y0084024D03*
D32*
X0121252Y0021000D02*
X0121252Y0021000D01*
X0115346Y0021000D01*
X0115346Y0021000D01*
X0121252Y0021000D01*
D33*
X0129825Y0021000D03*
X0129825Y0015094D03*
X0129825Y0026906D03*
D34*
X0163547Y0148500D03*
X0169453Y0148500D03*
D35*
X0201500Y0122264D03*
X0201500Y0112224D03*
X0201500Y0102776D03*
X0201500Y0092736D03*
D36*
X0191461Y0095295D03*
X0191461Y0119705D03*
D37*
X0190969Y0112618D03*
X0190969Y0110059D03*
X0190969Y0107500D03*
X0190969Y0104941D03*
X0190969Y0102382D03*
D38*
X0172250Y0091625D03*
X0155300Y0095500D03*
X0155200Y0099100D03*
X0150100Y0103600D03*
X0136300Y0113500D03*
X0132400Y0109600D03*
X0130600Y0115900D03*
X0123100Y0112300D03*
X0123200Y0100800D03*
X0105700Y0099700D03*
X0084400Y0085300D03*
X0094900Y0077800D03*
X0102100Y0066100D03*
X0126700Y0080200D03*
X0128200Y0073300D03*
X0138100Y0082000D03*
X0142875Y0067250D03*
X0146625Y0067250D03*
X0150688Y0061312D03*
X0133600Y0063700D03*
X0172250Y0073500D03*
X0184125Y0064125D03*
X0184125Y0029750D03*
X0148500Y0027250D03*
X0110375Y0028500D03*
X0097000Y0031300D03*
X0094300Y0028900D03*
X0094125Y0024750D03*
X0049300Y0054100D03*
X0047200Y0051100D03*
X0036100Y0050500D03*
X0033400Y0052900D03*
X0033400Y0056500D03*
X0035500Y0061600D03*
X0031600Y0061900D03*
X0029800Y0065200D03*
X0022300Y0065800D03*
X0021700Y0072100D03*
X0034300Y0084100D03*
X0050500Y0085300D03*
X0056200Y0076900D03*
X0049000Y0074500D03*
X0051700Y0069700D03*
X0065200Y0064600D03*
X0051700Y0097900D03*
X0056500Y0105100D03*
X0051100Y0106900D03*
X0054100Y0111100D03*
X0060100Y0113500D03*
X0038500Y0127000D03*
X0031300Y0125800D03*
X0025900Y0127600D03*
X0036400Y0115000D03*
X0053500Y0136600D03*
X0096400Y0143200D03*
X0100000Y0139300D03*
X0103300Y0146500D03*
X0096700Y0148000D03*
X0112000Y0131200D03*
X0118000Y0137200D03*
X0126400Y0143500D03*
X0136600Y0127600D03*
X0156000Y0125811D03*
X0157250Y0120375D03*
X0166900Y0133300D03*
M02*
