G75*
%MOIN*%
%OFA0B0*%
%FSLAX25Y25*%
%IPPOS*%
%LPD*%
%AMOC8*
5,1,8,0,0,1.08239X$1,22.5*
%
%ADD10C,0.07300*%
%ADD11R,0.07300X0.07300*%
%ADD12OC8,0.06800*%
%ADD13C,0.03778*%
D10*
X0099079Y0043000D03*
D11*
X0108921Y0043000D03*
D12*
X0009000Y0020000D03*
X0009000Y0030000D03*
X0009000Y0046000D03*
X0009000Y0056000D03*
X0009000Y0072000D03*
X0009000Y0083000D03*
X0009000Y0094000D03*
X0009000Y0105000D03*
X0009000Y0115000D03*
X0009000Y0125000D03*
X0009000Y0140000D03*
X0178500Y0138500D03*
X0188500Y0138500D03*
X0198500Y0138500D03*
X0198500Y0148500D03*
X0188500Y0148500D03*
X0178500Y0148500D03*
D13*
X0182500Y0145000D03*
X0170500Y0135000D03*
X0161000Y0136500D03*
X0146500Y0138500D03*
X0142600Y0125800D03*
X0149200Y0113500D03*
X0157600Y0119500D03*
X0151600Y0100900D03*
X0157600Y0097600D03*
X0157600Y0093700D03*
X0181000Y0090400D03*
X0188800Y0088400D03*
X0195400Y0088900D03*
X0187600Y0082600D03*
X0189000Y0078500D03*
X0174400Y0074500D03*
X0185800Y0057700D03*
X0195400Y0048100D03*
X0149200Y0064600D03*
X0142600Y0067000D03*
X0142600Y0071500D03*
X0148000Y0073300D03*
X0128200Y0072400D03*
X0128200Y0077500D03*
X0106900Y0079900D03*
X0101200Y0075100D03*
X0097900Y0071800D03*
X0094900Y0057400D03*
X0078400Y0057400D03*
X0064900Y0067000D03*
X0055000Y0076900D03*
X0064000Y0079000D03*
X0056200Y0089500D03*
X0071800Y0089500D03*
X0045700Y0106300D03*
X0050800Y0110500D03*
X0053200Y0117700D03*
X0057100Y0133000D03*
X0096700Y0136300D03*
X0096400Y0143200D03*
X0102400Y0145600D03*
X0107200Y0146800D03*
X0125000Y0149724D03*
X0117500Y0132000D03*
X0037300Y0073900D03*
X0033400Y0068800D03*
X0025600Y0070600D03*
X0039100Y0058000D03*
X0041500Y0051400D03*
X0047800Y0055300D03*
X0050500Y0052900D03*
X0053200Y0057700D03*
X0054100Y0043000D03*
X0028300Y0055900D03*
X0022600Y0091300D03*
X0020800Y0102700D03*
X0112000Y0014800D03*
X0102100Y0013000D03*
X0148900Y0025600D03*
X0148900Y0039700D03*
M02*
