G75*
%MOIN*%
%OFA0B0*%
%FSLAX25Y25*%
%IPPOS*%
%LPD*%
%AMOC8*
5,1,8,0,0,1.08239X$1,22.5*
%
%ADD10C,0.00000*%
%ADD11R,0.04331X0.03937*%
%ADD12C,0.06500*%
%ADD13R,0.06500X0.06500*%
%ADD14R,0.09449X0.09449*%
%ADD15R,0.14961X0.11024*%
%ADD16R,0.02756X0.01969*%
%ADD17R,0.02362X0.02362*%
%ADD18R,0.01575X0.03150*%
%ADD19R,0.05906X0.01969*%
%ADD20R,0.01969X0.05906*%
%ADD21OC8,0.06000*%
%ADD22R,0.03937X0.05512*%
%ADD23R,0.05512X0.03937*%
%ADD24R,0.01181X0.01772*%
%ADD25R,0.08799X0.04799*%
%ADD26R,0.08661X0.14173*%
%ADD27R,0.03937X0.04331*%
%ADD28R,0.03543X0.01969*%
%ADD29R,0.09252X0.02559*%
%ADD30R,0.01181X0.02756*%
%ADD31R,0.08189X0.02362*%
%ADD32R,0.02362X0.04724*%
%ADD33R,0.05906X0.03937*%
%ADD34R,0.07874X0.03937*%
%ADD35C,0.08661*%
%ADD36R,0.02717X0.03898*%
%ADD37R,0.03150X0.03150*%
%ADD38R,0.07480X0.07480*%
%ADD39R,0.06299X0.08268*%
%ADD40R,0.05315X0.01575*%
%ADD41C,0.00600*%
%ADD42C,0.02978*%
%ADD43C,0.01200*%
%ADD44C,0.01000*%
D10*
X0001000Y0001000D02*
X0001000Y0155961D01*
X0209701Y0155961D01*
X0209701Y0001000D01*
X0001000Y0001000D01*
D11*
X0060654Y0059000D03*
X0067346Y0059000D03*
X0067346Y0075000D03*
X0060654Y0075000D03*
X0060654Y0090000D03*
X0067346Y0090000D03*
X0083654Y0090000D03*
X0090346Y0090000D03*
X0139654Y0044000D03*
X0146346Y0044000D03*
X0155654Y0044000D03*
X0162346Y0044000D03*
X0172654Y0044000D03*
X0179346Y0044000D03*
X0188654Y0044000D03*
X0195346Y0044000D03*
X0195346Y0036000D03*
X0188654Y0036000D03*
X0188654Y0028000D03*
X0195346Y0028000D03*
X0195346Y0012000D03*
X0188654Y0012000D03*
X0162346Y0012000D03*
X0155654Y0012000D03*
X0155654Y0028000D03*
X0162346Y0028000D03*
X0162346Y0036000D03*
X0155654Y0036000D03*
X0177654Y0070500D03*
X0184346Y0070500D03*
X0105346Y0025000D03*
X0098654Y0025000D03*
X0098654Y0017000D03*
X0105346Y0017000D03*
X0105346Y0009000D03*
X0098654Y0009000D03*
X0161000Y0141654D03*
X0161000Y0148346D03*
D12*
X0099079Y0043000D03*
D13*
X0108921Y0043000D03*
D14*
X0142339Y0056000D03*
X0159661Y0056000D03*
X0175339Y0056000D03*
X0192661Y0056000D03*
D15*
X0028000Y0040067D03*
X0028000Y0010933D03*
D16*
X0044638Y0022000D03*
X0049756Y0022000D03*
D17*
X0059669Y0067000D03*
X0068331Y0067000D03*
X0029331Y0140000D03*
X0020669Y0140000D03*
D18*
X0040441Y0074150D03*
X0043000Y0074150D03*
X0045559Y0074150D03*
X0045559Y0067850D03*
X0043000Y0067850D03*
X0040441Y0067850D03*
D19*
X0117165Y0094252D03*
X0117165Y0097402D03*
X0117165Y0100551D03*
X0117165Y0103701D03*
X0117165Y0106850D03*
X0117165Y0110000D03*
X0117165Y0113150D03*
X0117165Y0116299D03*
X0117165Y0119449D03*
X0117165Y0122598D03*
X0117165Y0125748D03*
X0162835Y0125748D03*
X0162835Y0122598D03*
X0162835Y0119449D03*
X0162835Y0116299D03*
X0162835Y0113150D03*
X0162835Y0110000D03*
X0162835Y0106850D03*
X0162835Y0103701D03*
X0162835Y0100551D03*
X0162835Y0097402D03*
X0162835Y0094252D03*
D20*
X0155748Y0087165D03*
X0152598Y0087165D03*
X0149449Y0087165D03*
X0146299Y0087165D03*
X0143150Y0087165D03*
X0140000Y0087165D03*
X0136850Y0087165D03*
X0133701Y0087165D03*
X0130551Y0087165D03*
X0127402Y0087165D03*
X0124252Y0087165D03*
X0124252Y0132835D03*
X0127402Y0132835D03*
X0130551Y0132835D03*
X0133701Y0132835D03*
X0136850Y0132835D03*
X0140000Y0132835D03*
X0143150Y0132835D03*
X0146299Y0132835D03*
X0149449Y0132835D03*
X0152598Y0132835D03*
X0155748Y0132835D03*
D21*
X0178500Y0138500D03*
X0188500Y0138500D03*
X0198500Y0138500D03*
X0198500Y0148500D03*
X0188500Y0148500D03*
X0178500Y0148500D03*
X0009000Y0140000D03*
X0009000Y0125000D03*
X0009000Y0115000D03*
X0009000Y0105000D03*
X0009000Y0094000D03*
X0009000Y0083000D03*
X0009000Y0072000D03*
X0009000Y0056000D03*
X0009000Y0046000D03*
X0009000Y0030000D03*
X0009000Y0020000D03*
D22*
X0045000Y0081669D03*
X0041260Y0090331D03*
X0048740Y0090331D03*
X0028740Y0097669D03*
X0021260Y0097669D03*
X0025000Y0106331D03*
X0062260Y0139669D03*
X0069740Y0139669D03*
X0066000Y0148331D03*
D23*
X0029331Y0121740D03*
X0020669Y0118000D03*
X0029331Y0114260D03*
X0040669Y0105740D03*
X0049331Y0102000D03*
X0040669Y0098260D03*
X0029331Y0090740D03*
X0029331Y0083260D03*
X0020669Y0087000D03*
D24*
X0041031Y0060657D03*
X0043000Y0060657D03*
X0044969Y0060657D03*
X0044969Y0055343D03*
X0043000Y0055343D03*
X0041031Y0055343D03*
D25*
X0086201Y0030098D03*
X0086201Y0021000D03*
X0086201Y0011902D03*
D26*
X0061799Y0021000D03*
D27*
X0050346Y0014000D03*
X0043654Y0014000D03*
X0043654Y0031000D03*
X0050346Y0031000D03*
X0060654Y0043000D03*
X0067346Y0043000D03*
X0067346Y0051000D03*
X0060654Y0051000D03*
X0050346Y0047000D03*
X0043654Y0047000D03*
X0082654Y0059000D03*
X0089346Y0059000D03*
X0089346Y0067000D03*
X0082654Y0067000D03*
X0082654Y0075000D03*
X0089346Y0075000D03*
X0121654Y0044000D03*
X0128346Y0044000D03*
X0155654Y0020000D03*
X0162346Y0020000D03*
X0172654Y0012000D03*
X0179346Y0012000D03*
X0188654Y0020000D03*
X0195346Y0020000D03*
X0146346Y0012000D03*
X0139654Y0012000D03*
X0193154Y0072500D03*
X0199846Y0072500D03*
X0199846Y0084500D03*
X0193154Y0084500D03*
X0184346Y0086500D03*
X0177654Y0086500D03*
X0177654Y0078500D03*
X0184346Y0078500D03*
X0184346Y0094500D03*
X0177654Y0094500D03*
X0177654Y0102500D03*
X0184346Y0102500D03*
X0184346Y0110500D03*
X0177654Y0110500D03*
X0177654Y0118500D03*
X0184346Y0118500D03*
X0092346Y0140000D03*
X0085654Y0140000D03*
X0085654Y0148000D03*
X0092346Y0148000D03*
X0049346Y0145000D03*
X0042654Y0145000D03*
X0042654Y0137000D03*
X0049346Y0137000D03*
X0049346Y0129000D03*
X0042654Y0129000D03*
X0042654Y0121000D03*
X0049346Y0121000D03*
X0028346Y0132000D03*
X0021654Y0132000D03*
X0021654Y0148000D03*
X0028346Y0148000D03*
D28*
X0112850Y0146575D03*
X0112850Y0149724D03*
X0119150Y0149724D03*
X0119150Y0146575D03*
X0119150Y0143425D03*
X0119150Y0140276D03*
X0112850Y0140276D03*
X0112850Y0143425D03*
X0130350Y0143425D03*
X0130350Y0140276D03*
X0136650Y0140276D03*
X0136650Y0143425D03*
X0136650Y0146575D03*
X0136650Y0149724D03*
X0130350Y0149724D03*
X0130350Y0146575D03*
X0132350Y0076224D03*
X0132350Y0073075D03*
X0132350Y0069925D03*
X0132350Y0066776D03*
X0138650Y0066776D03*
X0138650Y0069925D03*
X0138650Y0073075D03*
X0138650Y0076224D03*
D29*
X0098803Y0100000D03*
X0098803Y0110000D03*
X0098803Y0120000D03*
X0098803Y0130000D03*
X0062976Y0130000D03*
X0062976Y0120000D03*
X0062976Y0110000D03*
X0062976Y0100000D03*
D30*
X0138063Y0031988D03*
X0140031Y0031988D03*
X0142000Y0031988D03*
X0143969Y0031988D03*
X0145937Y0031988D03*
X0145937Y0024193D03*
X0143969Y0024193D03*
X0142000Y0024193D03*
X0140031Y0024193D03*
X0138063Y0024193D03*
X0171063Y0024193D03*
X0173031Y0024193D03*
X0175000Y0024193D03*
X0176969Y0024193D03*
X0178937Y0024193D03*
X0178937Y0031988D03*
X0176969Y0031988D03*
X0175000Y0031988D03*
X0173031Y0031988D03*
X0171063Y0031988D03*
D31*
X0175000Y0028110D03*
X0142000Y0028110D03*
D32*
X0114500Y0061976D03*
X0109500Y0061976D03*
X0104500Y0061976D03*
X0099500Y0061976D03*
X0099500Y0084024D03*
X0104500Y0084024D03*
X0109500Y0084024D03*
X0114500Y0084024D03*
D33*
X0129799Y0026902D03*
X0129799Y0015098D03*
D34*
X0128799Y0021000D03*
D35*
X0121252Y0021000D02*
X0121252Y0021000D01*
X0115346Y0021000D01*
X0115346Y0021000D01*
X0121252Y0021000D01*
D36*
X0029740Y0049882D03*
X0026000Y0049882D03*
X0022260Y0049882D03*
X0022260Y0060118D03*
X0026000Y0060118D03*
X0029740Y0060118D03*
X0029740Y0066382D03*
X0026000Y0066382D03*
X0022260Y0066382D03*
X0022260Y0076618D03*
X0026000Y0076618D03*
X0029740Y0076618D03*
D37*
X0193547Y0078500D03*
X0199453Y0078500D03*
X0199453Y0066500D03*
X0193547Y0066500D03*
D38*
X0201500Y0092736D03*
X0201500Y0102776D03*
X0201500Y0112224D03*
X0201500Y0122264D03*
D39*
X0191461Y0119705D03*
X0191461Y0095295D03*
D40*
X0190969Y0102382D03*
X0190969Y0104941D03*
X0190969Y0107500D03*
X0190969Y0110059D03*
X0190969Y0112618D03*
D41*
X0188800Y0107500D02*
X0185800Y0110500D01*
X0184346Y0110500D01*
X0188800Y0107500D02*
X0190969Y0107500D01*
X0190969Y0104941D02*
X0190900Y0104800D01*
X0188500Y0104800D01*
X0186400Y0102700D01*
X0184600Y0102700D01*
X0184346Y0102500D01*
X0177700Y0102400D02*
X0177654Y0102500D01*
X0177400Y0102700D01*
X0176500Y0103600D01*
X0163000Y0103600D01*
X0162835Y0103701D01*
X0162835Y0106850D02*
X0163000Y0106900D01*
X0173800Y0106900D01*
X0177400Y0110500D01*
X0177654Y0110500D01*
X0177700Y0110500D01*
X0177700Y0118300D01*
X0177654Y0118500D01*
X0181000Y0120700D02*
X0181000Y0090400D01*
X0181000Y0089800D01*
X0177700Y0086500D01*
X0177654Y0086500D01*
X0177654Y0078500D02*
X0177400Y0078400D01*
X0177400Y0077500D01*
X0174400Y0074500D01*
X0184346Y0078500D02*
X0184600Y0078700D01*
X0184600Y0079600D01*
X0187600Y0082600D01*
X0189000Y0078500D02*
X0189000Y0076654D01*
X0193154Y0072500D01*
X0193600Y0066700D02*
X0199600Y0072700D01*
X0199846Y0072500D01*
X0193600Y0066700D02*
X0193547Y0066500D01*
X0193547Y0078500D02*
X0193600Y0078700D01*
X0199600Y0084700D01*
X0199846Y0084500D01*
X0193154Y0084500D02*
X0193000Y0084700D01*
X0193000Y0087700D01*
X0189500Y0087700D01*
X0188800Y0088400D01*
X0177654Y0094500D02*
X0177700Y0094600D01*
X0177700Y0102400D01*
X0162835Y0100551D02*
X0162700Y0100300D01*
X0160300Y0100300D01*
X0157600Y0097600D01*
X0162835Y0094252D02*
X0162700Y0094000D01*
X0162400Y0093700D01*
X0157600Y0093700D01*
X0157000Y0091300D02*
X0154600Y0091300D01*
X0152800Y0089500D01*
X0152800Y0087400D01*
X0152598Y0087165D01*
X0149449Y0087165D02*
X0149200Y0087400D01*
X0149200Y0113500D01*
X0160600Y0109900D02*
X0151600Y0100900D01*
X0157000Y0091300D02*
X0157900Y0090400D01*
X0157900Y0076900D01*
X0144400Y0063400D01*
X0135700Y0063400D01*
X0132400Y0066700D01*
X0132350Y0066776D01*
X0132100Y0067000D01*
X0126700Y0067000D01*
X0112300Y0081400D01*
X0112300Y0086200D01*
X0111100Y0087400D01*
X0097900Y0087400D01*
X0096400Y0085900D01*
X0046900Y0085900D01*
X0045700Y0087100D01*
X0045700Y0093400D01*
X0046300Y0094000D01*
X0049300Y0094000D01*
X0057700Y0102400D01*
X0062800Y0102400D01*
X0068800Y0108400D01*
X0068800Y0121600D01*
X0068200Y0122200D01*
X0063400Y0122200D01*
X0056800Y0128800D01*
X0049600Y0128800D01*
X0049346Y0129000D01*
X0042654Y0129000D02*
X0042400Y0128800D01*
X0042400Y0127300D01*
X0029500Y0114400D01*
X0029331Y0114260D01*
X0032500Y0111100D02*
X0042400Y0121000D01*
X0042654Y0121000D01*
X0043900Y0121000D01*
X0054700Y0110200D01*
X0062800Y0110200D01*
X0062976Y0110000D01*
X0053200Y0104200D02*
X0053200Y0099700D01*
X0052000Y0098500D01*
X0041200Y0098500D01*
X0040669Y0098260D01*
X0040900Y0098500D01*
X0041200Y0098500D01*
X0041200Y0090700D01*
X0041260Y0090331D01*
X0041200Y0090400D01*
X0041200Y0090700D01*
X0029500Y0090700D01*
X0029331Y0090740D01*
X0031300Y0094000D02*
X0009000Y0094000D01*
X0012700Y0086800D02*
X0009100Y0083200D01*
X0009000Y0083000D01*
X0012700Y0086800D02*
X0020500Y0086800D01*
X0020669Y0087000D01*
X0022600Y0091300D02*
X0029200Y0084700D01*
X0029200Y0083500D01*
X0029331Y0083260D01*
X0031900Y0079600D02*
X0033700Y0081400D01*
X0044800Y0081400D01*
X0045000Y0081669D01*
X0052000Y0087100D02*
X0049000Y0090100D01*
X0048740Y0090331D01*
X0052000Y0087100D02*
X0086200Y0087100D01*
X0086800Y0087700D01*
X0086800Y0117700D01*
X0093100Y0124000D01*
X0100000Y0124000D01*
X0104500Y0128500D01*
X0104500Y0129400D01*
X0112600Y0137500D01*
X0112600Y0140200D01*
X0112850Y0140276D01*
X0112600Y0143200D02*
X0112850Y0143425D01*
X0112600Y0143200D02*
X0096400Y0143200D01*
X0092800Y0140200D02*
X0092346Y0140000D01*
X0092500Y0140200D01*
X0092500Y0148000D01*
X0092346Y0148000D01*
X0085654Y0148000D02*
X0071800Y0148000D01*
X0068200Y0144400D01*
X0055600Y0144400D01*
X0051700Y0148300D01*
X0040300Y0148300D01*
X0031600Y0139600D01*
X0031600Y0138100D01*
X0027400Y0133900D01*
X0028346Y0132000D01*
X0028300Y0132100D01*
X0028300Y0132700D01*
X0020800Y0140200D01*
X0020669Y0140000D01*
X0020500Y0140200D01*
X0009100Y0140200D01*
X0009000Y0140000D01*
X0021400Y0148000D02*
X0021654Y0148000D01*
X0021400Y0148000D02*
X0029200Y0140200D01*
X0029331Y0140000D01*
X0028346Y0148000D02*
X0038200Y0148000D01*
X0039700Y0149500D01*
X0064900Y0149500D01*
X0065800Y0148600D01*
X0066000Y0148331D01*
X0062200Y0139900D02*
X0054700Y0139900D01*
X0049600Y0145000D01*
X0049346Y0145000D01*
X0049300Y0145000D01*
X0042700Y0138400D01*
X0042700Y0137200D01*
X0042654Y0137000D01*
X0042400Y0142300D02*
X0031300Y0131200D01*
X0031300Y0129400D01*
X0026800Y0124900D01*
X0026200Y0124900D01*
X0020800Y0119500D01*
X0020800Y0118000D01*
X0020669Y0118000D01*
X0014800Y0115000D02*
X0018700Y0111100D01*
X0032500Y0111100D01*
X0038600Y0108700D02*
X0049700Y0108700D01*
X0048850Y0108550D01*
X0050800Y0110500D01*
X0048850Y0108550D02*
X0053200Y0104200D01*
X0049331Y0102000D02*
X0049300Y0101800D01*
X0038200Y0101800D01*
X0031900Y0095500D01*
X0031900Y0094600D01*
X0031300Y0094000D01*
X0028740Y0097669D02*
X0028900Y0097900D01*
X0028900Y0100000D01*
X0038600Y0108700D01*
X0041200Y0106300D02*
X0040900Y0106000D01*
X0040669Y0105740D01*
X0041200Y0106300D02*
X0045700Y0106300D01*
X0053200Y0117700D02*
X0053200Y0121000D01*
X0049346Y0121000D01*
X0053200Y0121000D02*
X0061900Y0121000D01*
X0062800Y0120100D01*
X0062976Y0120000D01*
X0062260Y0139669D02*
X0062200Y0139900D01*
X0042654Y0145000D02*
X0042400Y0145000D01*
X0042400Y0142300D01*
X0014800Y0115000D02*
X0009000Y0115000D01*
X0010300Y0106300D02*
X0009000Y0105000D01*
X0010300Y0106300D02*
X0025000Y0106300D01*
X0025000Y0106331D01*
X0020800Y0102700D02*
X0020800Y0098200D01*
X0021100Y0097900D01*
X0021260Y0097669D01*
X0016600Y0079600D02*
X0009000Y0072000D01*
X0016600Y0079600D02*
X0031900Y0079600D01*
X0029800Y0076900D02*
X0029740Y0076618D01*
X0029800Y0076900D02*
X0055000Y0076900D01*
X0053200Y0071800D02*
X0097900Y0071800D01*
X0101200Y0075100D02*
X0089500Y0075100D01*
X0089346Y0075000D01*
X0082900Y0075100D02*
X0082654Y0075000D01*
X0082600Y0075100D01*
X0067600Y0075100D01*
X0067346Y0075000D01*
X0063700Y0069400D02*
X0080200Y0069400D01*
X0082600Y0067000D01*
X0082654Y0067000D01*
X0088600Y0063700D02*
X0093400Y0063700D01*
X0104500Y0074800D01*
X0104500Y0084024D01*
X0109500Y0084024D02*
X0109600Y0083800D01*
X0109600Y0082300D01*
X0121600Y0070300D01*
X0121600Y0044200D01*
X0121654Y0044000D01*
X0104500Y0061900D02*
X0104500Y0061976D01*
X0104500Y0061900D02*
X0097600Y0055000D01*
X0076000Y0055000D01*
X0071500Y0059500D01*
X0068200Y0059500D01*
X0067346Y0059000D01*
X0067600Y0059200D01*
X0068200Y0059800D01*
X0068200Y0067000D01*
X0068331Y0067000D01*
X0068200Y0067000D02*
X0064900Y0067000D01*
X0063700Y0069400D02*
X0061300Y0067000D01*
X0059669Y0067000D01*
X0053200Y0071800D02*
X0043000Y0061600D01*
X0043000Y0060657D01*
X0041200Y0060700D02*
X0041200Y0062200D01*
X0045400Y0066400D01*
X0045400Y0067600D01*
X0045559Y0067850D01*
X0043000Y0067850D02*
X0043000Y0066700D01*
X0039400Y0063100D01*
X0028000Y0063100D01*
X0026200Y0061300D01*
X0026200Y0060400D01*
X0026000Y0060118D01*
X0025900Y0060100D01*
X0025900Y0049900D01*
X0026000Y0049882D01*
X0027700Y0046900D02*
X0029500Y0048700D01*
X0029500Y0049600D01*
X0029740Y0049882D01*
X0029800Y0049900D01*
X0031000Y0049900D01*
X0039100Y0058000D01*
X0039100Y0058600D01*
X0040900Y0060400D01*
X0041031Y0060657D01*
X0041200Y0060700D01*
X0044500Y0057700D02*
X0053200Y0057700D01*
X0056200Y0055300D02*
X0047800Y0055300D01*
X0045100Y0055300D01*
X0044969Y0055343D01*
X0043000Y0055343D02*
X0043000Y0056200D01*
X0044500Y0057700D01*
X0041500Y0051400D02*
X0043600Y0049300D01*
X0043600Y0047200D01*
X0043654Y0047000D01*
X0054100Y0043000D02*
X0060654Y0043000D01*
X0060654Y0051000D02*
X0060400Y0051100D01*
X0056200Y0055300D01*
X0041200Y0071200D02*
X0029800Y0071200D01*
X0029650Y0071050D01*
X0026200Y0074500D01*
X0026200Y0076600D01*
X0026000Y0076618D01*
X0022260Y0076618D02*
X0022000Y0076600D01*
X0022000Y0070900D01*
X0019900Y0068800D01*
X0019900Y0060100D01*
X0022000Y0060100D01*
X0022260Y0060118D01*
X0019900Y0060100D02*
X0013000Y0060100D01*
X0009100Y0056200D01*
X0009000Y0056000D01*
X0022260Y0049882D02*
X0022300Y0049600D01*
X0022300Y0049000D01*
X0024400Y0046900D01*
X0027700Y0046900D01*
X0028300Y0055900D02*
X0029500Y0057100D01*
X0029500Y0060100D01*
X0029740Y0060118D01*
X0029740Y0066382D02*
X0029800Y0066400D01*
X0032200Y0068800D01*
X0033400Y0068800D01*
X0029650Y0071050D02*
X0026200Y0067600D01*
X0026200Y0066400D01*
X0026000Y0066382D01*
X0022300Y0066400D02*
X0022260Y0066382D01*
X0022300Y0066400D02*
X0022300Y0067300D01*
X0025600Y0070600D01*
X0037300Y0073900D02*
X0040300Y0073900D01*
X0040441Y0074150D01*
X0043000Y0074150D02*
X0043000Y0073000D01*
X0041200Y0071200D01*
X0082900Y0075100D02*
X0091600Y0083800D01*
X0099400Y0083800D01*
X0099500Y0084024D01*
X0114500Y0084024D02*
X0114700Y0083800D01*
X0114700Y0082300D01*
X0127000Y0070000D01*
X0132100Y0070000D01*
X0132350Y0069925D01*
X0132400Y0069700D01*
X0133600Y0069700D01*
X0135100Y0068200D01*
X0135100Y0066100D01*
X0136600Y0064600D01*
X0143800Y0064600D01*
X0155500Y0076300D01*
X0155500Y0087100D01*
X0155748Y0087165D01*
X0132350Y0076224D02*
X0132100Y0076300D01*
X0130900Y0077500D01*
X0128200Y0077500D01*
X0128200Y0072400D02*
X0131500Y0072400D01*
X0132100Y0073000D01*
X0132350Y0073075D01*
X0127402Y0087165D02*
X0127300Y0087400D01*
X0127300Y0089500D01*
X0124600Y0092200D01*
X0113800Y0092200D01*
X0105700Y0100300D01*
X0105700Y0113200D01*
X0099100Y0119800D01*
X0098803Y0120000D01*
X0108297Y0120083D02*
X0108600Y0119780D01*
X0108600Y0108680D01*
X0110430Y0106850D01*
X0117165Y0106850D01*
X0117100Y0106900D01*
X0115000Y0106900D01*
X0114800Y0110000D02*
X0117165Y0110000D01*
X0117100Y0110200D01*
X0114700Y0110200D01*
X0114800Y0110000D02*
X0109800Y0115000D01*
X0109800Y0120277D01*
X0109500Y0120577D01*
X0109500Y0130626D01*
X0119150Y0140276D01*
X0118900Y0140200D01*
X0119150Y0140276D02*
X0119200Y0140500D01*
X0130300Y0140500D01*
X0130350Y0140276D01*
X0132400Y0138100D02*
X0133300Y0139000D01*
X0133300Y0144700D01*
X0131500Y0146500D01*
X0130600Y0146500D01*
X0130350Y0146575D01*
X0130300Y0146800D01*
X0119200Y0146800D01*
X0119150Y0146575D01*
X0119200Y0143500D02*
X0119150Y0143425D01*
X0118900Y0143200D01*
X0118000Y0143200D01*
X0116200Y0141400D01*
X0116200Y0139300D01*
X0108400Y0131500D01*
X0108297Y0131500D01*
X0108297Y0120083D01*
X0113313Y0114942D02*
X0113313Y0127105D01*
X0117500Y0131292D01*
X0117500Y0132000D01*
X0122200Y0136000D02*
X0124300Y0138100D01*
X0132400Y0138100D01*
X0130350Y0143425D02*
X0130300Y0143500D01*
X0119200Y0143500D01*
X0112850Y0146575D02*
X0112600Y0146800D01*
X0107200Y0146800D01*
X0106300Y0149500D02*
X0102400Y0145600D01*
X0106300Y0149500D02*
X0112600Y0149500D01*
X0112850Y0149724D01*
X0119150Y0149724D02*
X0125000Y0149724D01*
X0130350Y0149724D01*
X0146299Y0138299D02*
X0146299Y0132835D01*
X0149449Y0132835D02*
X0149500Y0133000D01*
X0149500Y0135700D01*
X0158500Y0144700D01*
X0163600Y0144700D01*
X0163900Y0144400D01*
X0180100Y0144400D01*
X0180700Y0145000D01*
X0182500Y0145000D01*
X0176800Y0142600D02*
X0194500Y0142600D01*
X0198400Y0138700D01*
X0198500Y0138500D01*
X0178500Y0138500D02*
X0178300Y0138400D01*
X0169600Y0129700D01*
X0164800Y0129700D01*
X0161800Y0132700D01*
X0155800Y0132700D01*
X0155748Y0132835D01*
X0152800Y0133000D02*
X0152800Y0135100D01*
X0159100Y0141400D01*
X0160900Y0141400D01*
X0161000Y0141654D01*
X0161200Y0141700D01*
X0175900Y0141700D01*
X0176800Y0142600D01*
X0170500Y0135000D02*
X0169000Y0136500D01*
X0161000Y0136500D01*
X0152800Y0133000D02*
X0152598Y0132835D01*
X0146500Y0138500D02*
X0146299Y0138299D01*
X0142600Y0125800D02*
X0162700Y0125800D01*
X0162835Y0125748D01*
X0162835Y0122598D02*
X0163000Y0122500D01*
X0179200Y0122500D01*
X0181000Y0120700D01*
X0162835Y0110000D02*
X0162700Y0109900D01*
X0160600Y0109900D01*
X0124252Y0087165D02*
X0124000Y0087400D01*
X0118600Y0087400D01*
X0115000Y0091000D01*
X0113200Y0091000D01*
X0104500Y0099700D01*
X0104500Y0104500D01*
X0099100Y0109900D01*
X0098803Y0110000D01*
X0113313Y0114942D02*
X0113840Y0114415D01*
X0115900Y0114415D01*
X0117165Y0113150D01*
X0117165Y0116299D02*
X0117400Y0116500D01*
X0119500Y0116500D01*
X0122200Y0119200D01*
X0122200Y0136000D01*
X0096700Y0136300D02*
X0092800Y0140200D01*
X0088600Y0063700D02*
X0084100Y0059200D01*
X0082900Y0059200D01*
X0082654Y0059000D01*
X0142000Y0024193D02*
X0142000Y0016300D01*
X0146200Y0012100D01*
X0146346Y0012000D01*
X0146500Y0012100D01*
X0154300Y0019900D01*
X0155500Y0019900D01*
X0155654Y0020000D01*
X0149200Y0021700D02*
X0155500Y0028000D01*
X0155654Y0028000D01*
X0151600Y0032200D02*
X0155500Y0036100D01*
X0155654Y0036000D01*
X0151600Y0032200D02*
X0146200Y0032200D01*
X0145937Y0031988D01*
X0143969Y0024193D02*
X0144100Y0024100D01*
X0144100Y0022600D01*
X0145000Y0021700D01*
X0149200Y0021700D01*
X0175000Y0024193D02*
X0175000Y0016300D01*
X0179200Y0012100D01*
X0179346Y0012000D01*
X0179500Y0012100D01*
X0187300Y0019900D01*
X0188500Y0019900D01*
X0188654Y0020000D01*
X0182200Y0021700D02*
X0188500Y0028000D01*
X0188654Y0028000D01*
X0184900Y0032200D02*
X0188500Y0035800D01*
X0188654Y0036000D01*
X0184900Y0032200D02*
X0179200Y0032200D01*
X0178937Y0031988D01*
X0176969Y0024193D02*
X0177100Y0024100D01*
X0177100Y0022600D01*
X0178000Y0021700D01*
X0182200Y0021700D01*
D42*
X0148900Y0025600D03*
X0148900Y0039700D03*
X0149200Y0064600D03*
X0142600Y0067000D03*
X0142600Y0071500D03*
X0148000Y0073300D03*
X0128200Y0072400D03*
X0128200Y0077500D03*
X0106900Y0079900D03*
X0101200Y0075100D03*
X0097900Y0071800D03*
X0094900Y0057400D03*
X0078400Y0057400D03*
X0064900Y0067000D03*
X0055000Y0076900D03*
X0064000Y0079000D03*
X0056200Y0089500D03*
X0071800Y0089500D03*
X0045700Y0106300D03*
X0050800Y0110500D03*
X0053200Y0117700D03*
X0057100Y0133000D03*
X0096700Y0136300D03*
X0096400Y0143200D03*
X0102400Y0145600D03*
X0107200Y0146800D03*
X0125000Y0149724D03*
X0146500Y0138500D03*
X0161000Y0136500D03*
X0170500Y0135000D03*
X0182500Y0145000D03*
X0157600Y0119500D03*
X0149200Y0113500D03*
X0151600Y0100900D03*
X0157600Y0097600D03*
X0157600Y0093700D03*
X0181000Y0090400D03*
X0188800Y0088400D03*
X0195400Y0088900D03*
X0187600Y0082600D03*
X0189000Y0078500D03*
X0174400Y0074500D03*
X0185800Y0057700D03*
X0195400Y0048100D03*
X0112000Y0014800D03*
X0102100Y0013000D03*
X0054100Y0043000D03*
X0050500Y0052900D03*
X0047800Y0055300D03*
X0053200Y0057700D03*
X0041500Y0051400D03*
X0039100Y0058000D03*
X0028300Y0055900D03*
X0033400Y0068800D03*
X0025600Y0070600D03*
X0037300Y0073900D03*
X0022600Y0091300D03*
X0020800Y0102700D03*
X0117500Y0132000D03*
X0142600Y0125800D03*
D43*
X0145900Y0127300D02*
X0143500Y0129700D01*
X0143500Y0132400D01*
X0143150Y0132835D01*
X0142900Y0133000D01*
X0142900Y0135700D01*
X0138100Y0140500D01*
X0137500Y0140500D01*
X0136650Y0140276D01*
X0136900Y0140500D01*
X0136900Y0143200D01*
X0136650Y0143425D01*
X0136600Y0143800D01*
X0136600Y0146200D01*
X0136650Y0146575D01*
X0136900Y0146800D01*
X0136900Y0149500D01*
X0136650Y0149724D01*
X0145900Y0127300D02*
X0158500Y0127300D01*
X0159400Y0128200D01*
X0175900Y0128200D01*
X0184600Y0119500D01*
X0184600Y0119200D01*
X0184346Y0118500D01*
X0184600Y0118600D01*
X0190300Y0118600D01*
X0191200Y0119500D01*
X0191461Y0119705D01*
X0191800Y0119500D01*
X0201100Y0119500D01*
X0201500Y0122264D01*
X0201700Y0122800D01*
X0202900Y0124000D01*
X0202900Y0140200D01*
X0198700Y0144400D01*
X0198700Y0148300D01*
X0198500Y0148500D01*
X0201500Y0122264D02*
X0201400Y0122200D01*
X0201400Y0112600D01*
X0201500Y0112224D01*
X0201400Y0112000D01*
X0201400Y0103000D01*
X0201500Y0102776D01*
X0201400Y0102400D01*
X0201400Y0093100D01*
X0201500Y0092736D01*
X0201700Y0092200D01*
X0203800Y0090100D01*
X0203800Y0066400D01*
X0193300Y0055900D01*
X0192661Y0056000D01*
X0193000Y0056500D01*
X0199300Y0062800D01*
X0199300Y0066400D01*
X0199453Y0066500D01*
X0199900Y0066700D01*
X0203200Y0070000D01*
X0203200Y0075100D01*
X0202300Y0076000D01*
X0202000Y0076000D01*
X0199600Y0078400D01*
X0199453Y0078500D01*
X0184300Y0072700D02*
X0184300Y0070600D01*
X0184346Y0070500D01*
X0183700Y0070600D01*
X0175300Y0062200D01*
X0170200Y0062200D01*
X0167500Y0059500D01*
X0167500Y0049900D01*
X0181900Y0049900D01*
X0187900Y0055900D01*
X0192100Y0055900D01*
X0192661Y0056000D01*
X0193000Y0055600D01*
X0200500Y0048100D01*
X0200500Y0032500D01*
X0196300Y0028300D01*
X0195700Y0028300D01*
X0195346Y0028000D01*
X0195400Y0028000D01*
X0195400Y0020500D01*
X0195346Y0020000D01*
X0195400Y0019900D01*
X0195400Y0012100D01*
X0195346Y0012000D01*
X0188654Y0012000D02*
X0188500Y0011800D01*
X0185200Y0011800D01*
X0181900Y0008500D01*
X0176500Y0008500D01*
X0173200Y0011800D01*
X0172654Y0012000D01*
X0172300Y0011500D01*
X0167800Y0011500D01*
X0165100Y0008800D01*
X0159100Y0008800D01*
X0156100Y0011800D01*
X0155654Y0012000D01*
X0155500Y0011800D01*
X0152200Y0011800D01*
X0148900Y0008500D01*
X0143500Y0008500D01*
X0140200Y0011800D01*
X0139654Y0012000D01*
X0139900Y0012100D01*
X0140200Y0012400D01*
X0140200Y0015100D01*
X0130000Y0015100D01*
X0129799Y0015098D01*
X0129400Y0014800D01*
X0112000Y0014800D01*
X0110500Y0017200D02*
X0114100Y0020800D01*
X0118000Y0020800D01*
X0118299Y0021000D01*
X0118900Y0021100D01*
X0128500Y0021100D01*
X0128799Y0021000D01*
X0129400Y0021100D01*
X0130900Y0021100D01*
X0134200Y0024400D01*
X0137800Y0024400D01*
X0138063Y0024193D01*
X0137800Y0024400D02*
X0137800Y0025900D01*
X0139900Y0028000D01*
X0142000Y0028000D01*
X0142000Y0028110D01*
X0142600Y0028300D01*
X0150100Y0028300D01*
X0153100Y0031300D01*
X0162400Y0031300D01*
X0162400Y0035800D01*
X0162346Y0036000D01*
X0162400Y0036400D01*
X0162400Y0043900D01*
X0162346Y0044000D01*
X0162700Y0044500D01*
X0167500Y0049300D01*
X0167500Y0049900D01*
X0159661Y0056000D02*
X0159700Y0056200D01*
X0159700Y0064600D01*
X0149200Y0064600D01*
X0145300Y0070300D02*
X0145300Y0080500D01*
X0143200Y0082600D01*
X0143200Y0087100D01*
X0143150Y0087165D01*
X0142900Y0087700D01*
X0142900Y0090100D01*
X0132400Y0100600D01*
X0148000Y0116200D01*
X0162700Y0116200D01*
X0162835Y0116299D01*
X0190900Y0118600D02*
X0190900Y0112900D01*
X0190969Y0112618D01*
X0190900Y0118600D02*
X0191461Y0119705D01*
X0191461Y0095295D02*
X0191200Y0095200D01*
X0190600Y0094600D01*
X0184600Y0094600D01*
X0184346Y0094500D01*
X0184300Y0094000D01*
X0184300Y0086800D01*
X0184346Y0086500D01*
X0184300Y0086500D01*
X0181000Y0083200D01*
X0181000Y0082000D01*
X0175300Y0082000D01*
X0159700Y0066400D01*
X0159700Y0064600D01*
X0145300Y0070300D02*
X0142300Y0067300D01*
X0142600Y0067000D01*
X0142300Y0067300D02*
X0142000Y0067000D01*
X0138700Y0067000D01*
X0138650Y0066776D01*
X0109600Y0062200D02*
X0109500Y0061976D01*
X0109300Y0061600D01*
X0109300Y0043300D01*
X0108921Y0043000D01*
X0108700Y0043000D01*
X0105400Y0039700D01*
X0105400Y0025000D01*
X0105346Y0025000D01*
X0104800Y0024700D01*
X0101800Y0021700D01*
X0096100Y0021700D01*
X0095200Y0022600D01*
X0095200Y0029800D01*
X0082000Y0043000D01*
X0067346Y0043000D01*
X0067300Y0043000D01*
X0067300Y0050800D01*
X0067346Y0051000D01*
X0064000Y0054400D02*
X0074200Y0054400D01*
X0085300Y0043300D01*
X0098500Y0043300D01*
X0099079Y0043000D01*
X0098800Y0043000D01*
X0098800Y0025000D01*
X0098654Y0025000D01*
X0098200Y0017200D02*
X0090100Y0017200D01*
X0086500Y0020800D01*
X0086201Y0021000D01*
X0085600Y0021100D01*
X0061900Y0021100D01*
X0061799Y0021000D01*
X0053800Y0017500D02*
X0053800Y0015700D01*
X0057400Y0012100D01*
X0086200Y0012100D01*
X0086201Y0011902D01*
X0098654Y0009000D02*
X0098800Y0009100D01*
X0098800Y0016900D01*
X0098654Y0017000D01*
X0098200Y0017200D01*
X0102100Y0013000D02*
X0105100Y0010000D01*
X0105100Y0009100D01*
X0105346Y0009000D01*
X0108100Y0005800D02*
X0109000Y0006700D01*
X0109000Y0017200D01*
X0105400Y0017200D01*
X0105346Y0017000D01*
X0109000Y0017200D02*
X0110500Y0017200D01*
X0108100Y0005800D02*
X0061000Y0005800D01*
X0053200Y0013600D01*
X0050800Y0013600D01*
X0050346Y0014000D01*
X0050200Y0013900D01*
X0049600Y0013900D01*
X0046300Y0010600D01*
X0028300Y0010600D01*
X0028000Y0010900D01*
X0028000Y0010933D01*
X0027700Y0011200D01*
X0019000Y0019900D01*
X0009100Y0019900D01*
X0009000Y0020000D01*
X0009000Y0030000D02*
X0009100Y0030100D01*
X0018100Y0030100D01*
X0027700Y0039700D01*
X0028000Y0040067D01*
X0028000Y0040000D01*
X0036700Y0031300D01*
X0043300Y0031300D01*
X0043654Y0031000D01*
X0044500Y0031000D01*
X0048100Y0034600D01*
X0052600Y0034600D01*
X0057100Y0030100D01*
X0086200Y0030100D01*
X0086201Y0030098D01*
X0064000Y0040300D02*
X0064000Y0054400D01*
X0064000Y0055600D01*
X0060700Y0058900D01*
X0060654Y0059000D01*
X0060100Y0059200D01*
X0058900Y0060400D01*
X0045100Y0060400D01*
X0044969Y0060657D01*
X0041031Y0055343D02*
X0040900Y0055300D01*
X0040900Y0054700D01*
X0038800Y0052600D01*
X0038800Y0046000D01*
X0045400Y0039400D01*
X0063100Y0039400D01*
X0064000Y0040300D01*
X0050346Y0031000D02*
X0050200Y0031000D01*
X0049900Y0030700D01*
X0049900Y0022000D01*
X0049756Y0022000D01*
X0049900Y0021400D01*
X0053800Y0017500D01*
X0049756Y0022000D02*
X0049300Y0021700D01*
X0043900Y0016300D01*
X0043900Y0014200D01*
X0043654Y0014000D01*
X0044500Y0022000D02*
X0044638Y0022000D01*
X0044500Y0022000D02*
X0044500Y0030400D01*
X0043900Y0031000D01*
X0043654Y0031000D01*
X0078400Y0057400D02*
X0078400Y0060700D01*
X0080200Y0062500D01*
X0084100Y0062500D01*
X0088600Y0067000D01*
X0089346Y0067000D01*
X0091300Y0059200D02*
X0097900Y0065800D01*
X0106000Y0065800D01*
X0109600Y0062200D01*
X0099500Y0061976D02*
X0099400Y0061900D01*
X0094900Y0057400D01*
X0091300Y0059200D02*
X0089500Y0059200D01*
X0089346Y0059000D01*
X0064000Y0079000D02*
X0060700Y0075700D01*
X0060700Y0075100D01*
X0060654Y0075000D01*
X0067346Y0090000D02*
X0067600Y0090100D01*
X0071800Y0090100D01*
X0071800Y0089500D01*
X0071800Y0090100D02*
X0075700Y0090100D01*
X0075700Y0130000D01*
X0085300Y0139600D01*
X0085654Y0140000D01*
X0085900Y0139900D01*
X0086500Y0139900D01*
X0096400Y0130000D01*
X0098803Y0130000D01*
X0075700Y0130000D02*
X0062976Y0130000D01*
X0062500Y0130300D01*
X0055900Y0130300D01*
X0053800Y0132400D01*
X0039700Y0132400D01*
X0029500Y0122200D01*
X0029331Y0121740D01*
X0029200Y0121600D01*
X0025300Y0117700D01*
X0025300Y0116200D01*
X0023800Y0114700D01*
X0017500Y0114700D01*
X0016600Y0115600D01*
X0016600Y0120400D01*
X0021400Y0125200D01*
X0021400Y0131800D01*
X0021654Y0132000D01*
X0075700Y0090100D02*
X0083500Y0090100D01*
X0083654Y0090000D01*
X0117165Y0103701D02*
X0117400Y0103600D01*
X0129400Y0103600D01*
X0132400Y0100600D01*
X0181000Y0082000D02*
X0181000Y0076000D01*
X0184300Y0072700D01*
X0195346Y0044000D02*
X0195400Y0043900D01*
X0195400Y0039400D01*
X0178600Y0039400D01*
X0173200Y0034000D01*
X0173200Y0032500D01*
X0173031Y0031988D01*
X0173200Y0031900D01*
X0173200Y0028300D01*
X0175000Y0028110D01*
X0175000Y0028000D01*
X0172900Y0028000D01*
X0170800Y0025900D01*
X0170800Y0024400D01*
X0162400Y0024400D01*
X0162400Y0028000D01*
X0162346Y0028000D01*
X0162400Y0028300D01*
X0162400Y0031300D01*
X0162400Y0024400D02*
X0162400Y0020500D01*
X0162346Y0020000D01*
X0162400Y0019900D01*
X0162400Y0012100D01*
X0162346Y0012000D01*
X0172654Y0012000D02*
X0172900Y0012100D01*
X0173200Y0012400D01*
X0173200Y0024100D01*
X0173031Y0024193D01*
X0171063Y0024193D02*
X0170800Y0024400D01*
X0195346Y0036000D02*
X0195400Y0036100D01*
X0195400Y0039400D01*
X0142000Y0028110D02*
X0140200Y0028300D01*
X0140200Y0031900D01*
X0140031Y0031988D01*
X0140031Y0024193D02*
X0140200Y0024100D01*
X0140200Y0015100D01*
D44*
X0145937Y0024193D02*
X0146200Y0024400D01*
X0147700Y0024400D01*
X0148900Y0025600D01*
X0138063Y0031988D02*
X0138100Y0032200D01*
X0138100Y0042400D01*
X0139600Y0043900D01*
X0139654Y0044000D01*
X0145900Y0043900D02*
X0146346Y0044000D01*
X0146500Y0043600D01*
X0148900Y0041200D01*
X0151600Y0043900D01*
X0155200Y0043900D01*
X0155654Y0044000D01*
X0156100Y0044200D01*
X0159100Y0047200D01*
X0162100Y0047200D01*
X0165700Y0050800D01*
X0165700Y0060400D01*
X0175600Y0070300D01*
X0177400Y0070300D01*
X0177654Y0070500D01*
X0185800Y0057700D02*
X0184300Y0056200D01*
X0175600Y0056200D01*
X0175339Y0056000D01*
X0172654Y0044000D02*
X0172600Y0043900D01*
X0171100Y0042400D01*
X0171100Y0032200D01*
X0171063Y0031988D01*
X0178937Y0024193D02*
X0179200Y0024400D01*
X0187600Y0032800D01*
X0198100Y0032800D01*
X0198700Y0033400D01*
X0198700Y0046600D01*
X0198100Y0047200D01*
X0195400Y0047200D01*
X0195400Y0048100D01*
X0195400Y0047200D02*
X0191800Y0047200D01*
X0188800Y0044200D01*
X0188654Y0044000D01*
X0188200Y0043900D01*
X0179500Y0043900D01*
X0179346Y0044000D01*
X0148900Y0041200D02*
X0148900Y0039700D01*
X0145900Y0043900D02*
X0138400Y0051400D01*
X0142339Y0056000D01*
X0142300Y0055900D01*
X0130600Y0044200D01*
X0128500Y0044200D01*
X0128346Y0044000D01*
X0116800Y0043000D02*
X0116800Y0070000D01*
X0106900Y0079900D01*
X0114400Y0089500D02*
X0121000Y0082900D01*
X0130000Y0082900D01*
X0136300Y0076600D01*
X0138400Y0076600D01*
X0138650Y0076224D01*
X0138700Y0076000D01*
X0138700Y0073300D01*
X0138650Y0073075D01*
X0138700Y0072700D01*
X0138700Y0071500D01*
X0142600Y0071500D01*
X0138700Y0071500D02*
X0138700Y0070000D01*
X0138650Y0069925D01*
X0148000Y0073300D02*
X0148000Y0080500D01*
X0146500Y0082000D01*
X0146500Y0087100D01*
X0146299Y0087165D01*
X0117165Y0100551D02*
X0117100Y0100600D01*
X0114700Y0100600D01*
X0107200Y0108100D01*
X0107200Y0119200D01*
X0103900Y0122500D01*
X0093700Y0122500D01*
X0092800Y0121600D01*
X0092800Y0106000D01*
X0098500Y0100300D01*
X0098803Y0100000D01*
X0099100Y0099700D01*
X0109300Y0089500D01*
X0114400Y0089500D01*
X0098803Y0100000D02*
X0098800Y0100000D01*
X0090400Y0091600D01*
X0090400Y0090100D01*
X0090346Y0090000D01*
X0062800Y0092500D02*
X0060700Y0090400D01*
X0060654Y0090000D01*
X0060700Y0089500D01*
X0056200Y0089500D01*
X0062800Y0092500D02*
X0062800Y0100000D01*
X0062976Y0100000D01*
X0057100Y0133000D02*
X0059800Y0135700D01*
X0065800Y0135700D01*
X0069700Y0139600D01*
X0069740Y0139669D01*
X0059800Y0135700D02*
X0058600Y0136900D01*
X0049600Y0136900D01*
X0049346Y0137000D01*
X0139900Y0132700D02*
X0139900Y0124600D01*
X0145000Y0119500D01*
X0157600Y0119500D01*
X0162700Y0119500D01*
X0162835Y0119449D01*
X0140000Y0132835D02*
X0139900Y0132700D01*
X0161000Y0148346D02*
X0161200Y0148300D01*
X0178300Y0148300D01*
X0178500Y0148500D01*
X0190969Y0102382D02*
X0191200Y0102100D01*
X0193600Y0102100D01*
X0196000Y0099700D01*
X0196000Y0089500D01*
X0195400Y0088900D01*
X0129700Y0030100D02*
X0116800Y0043000D01*
X0129700Y0030100D02*
X0129700Y0027100D01*
X0129799Y0026902D01*
X0050500Y0047200D02*
X0050346Y0047000D01*
X0050500Y0047200D02*
X0050500Y0052900D01*
M02*
