G75*
%MOIN*%
%OFA0B0*%
%FSLAX25Y25*%
%IPPOS*%
%LPD*%
%AMOC8*
5,1,8,0,0,1.08239X$1,22.5*
%
%ADD10C,0.07300*%
%ADD11R,0.07300X0.07300*%
%ADD12OC8,0.06800*%
%ADD13C,0.03778*%
D10*
X0099079Y0043000D03*
D11*
X0108921Y0043000D03*
D12*
X0009000Y0020000D03*
X0009000Y0030000D03*
X0009000Y0046000D03*
X0009000Y0056000D03*
X0009000Y0072000D03*
X0009000Y0083000D03*
X0009000Y0094000D03*
X0009000Y0105000D03*
X0009000Y0115000D03*
X0009000Y0125000D03*
X0009000Y0140000D03*
X0178500Y0138500D03*
X0188500Y0138500D03*
X0198500Y0138500D03*
X0198500Y0148500D03*
X0188500Y0148500D03*
X0178500Y0148500D03*
D13*
X0166900Y0133300D03*
X0156000Y0125811D03*
X0157250Y0120375D03*
X0136600Y0127600D03*
X0130600Y0115900D03*
X0136300Y0113500D03*
X0132400Y0109600D03*
X0123100Y0112300D03*
X0123200Y0100800D03*
X0105700Y0099700D03*
X0084400Y0085300D03*
X0094900Y0077800D03*
X0102100Y0066100D03*
X0126700Y0080200D03*
X0128200Y0073300D03*
X0138100Y0082000D03*
X0142875Y0067250D03*
X0146625Y0067250D03*
X0150688Y0061312D03*
X0133600Y0063700D03*
X0172250Y0073500D03*
X0184125Y0064125D03*
X0172250Y0091625D03*
X0155300Y0095500D03*
X0155200Y0099100D03*
X0150100Y0103600D03*
X0112000Y0131200D03*
X0118000Y0137200D03*
X0126400Y0143500D03*
X0103300Y0146500D03*
X0096700Y0148000D03*
X0096400Y0143200D03*
X0100000Y0139300D03*
X0060100Y0113500D03*
X0054100Y0111100D03*
X0051100Y0106900D03*
X0056500Y0105100D03*
X0051700Y0097900D03*
X0050500Y0085300D03*
X0056200Y0076900D03*
X0049000Y0074500D03*
X0051700Y0069700D03*
X0065200Y0064600D03*
X0049300Y0054100D03*
X0047200Y0051100D03*
X0036100Y0050500D03*
X0033400Y0052900D03*
X0033400Y0056500D03*
X0035500Y0061600D03*
X0031600Y0061900D03*
X0029800Y0065200D03*
X0022300Y0065800D03*
X0021700Y0072100D03*
X0034300Y0084100D03*
X0036400Y0115000D03*
X0031300Y0125800D03*
X0025900Y0127600D03*
X0038500Y0127000D03*
X0053500Y0136600D03*
X0097000Y0031300D03*
X0094300Y0028900D03*
X0094125Y0024750D03*
X0110375Y0028500D03*
X0148500Y0027250D03*
X0184125Y0029750D03*
M02*
